<!DOCTYPE svg PUBLIC "-//W3C//DTD SVG 20010904//EN"
 "http://www.w3.org/TR/2001/REC-SVG-20010904/DTD/svg10.dtd">
<svg version="1.0" xmlns="http://www.w3.org/2000/svg"
 width="1534.000000pt" height="320.000000pt" viewBox="0 0 1534.000000 320.000000"
 preserveAspectRatio="xMidYMid meet">

<g transform="translate(0.000000,320.000000) scale(0.100000,-0.100000)"
fill="#000000" stroke="none">
<path d="M0 1600 l0 -1600 7670 0 7670 0 0 1600 0 1600 -6577 -1 c-3618 -1
-6522 -6 -6453 -10 465 -31 899 -159 1227 -363 206 -127 391 -286 426 -366 11
-25 36 -67 55 -95 119 -167 205 -356 243 -535 28 -133 30 -345 4 -465 -83
-394 -342 -742 -735 -986 -99 -61 -289 -157 -396 -200 -117 -46 -373 -109
-446 -109 l-61 0 19 21 19 22 -35 -6 c-239 -42 -592 -38 -875 9 -227 38 -514
133 -690 229 -122 66 -267 164 -260 175 13 22 53 7 165 -60 285 -170 572 -265
910 -301 227 -24 668 -11 720 22 12 8 11 9 -5 5 -64 -16 -320 -28 -470 -23
-283 10 -451 39 -686 117 -222 73 -430 183 -401 212 10 10 143 -36 277 -96
152 -67 426 -135 624 -156 143 -14 414 -12 551 5 630 76 1179 413 1400 860 94
190 128 354 117 554 -24 403 -300 785 -749 1037 -54 30 -131 69 -171 85 -94
39 -278 101 -284 95 -2 -2 40 -18 94 -36 129 -42 240 -95 254 -122 10 -18 9
-20 -5 -15 -35 14 -12 -3 95 -69 306 -190 499 -414 589 -684 25 -76 40 -273
21 -284 -15 -10 -27 22 -46 124 -32 167 -74 269 -166 400 -88 125 -267 292
-384 359 -46 26 -31 13 79 -66 168 -123 325 -324 392 -502 43 -114 50 -160 30
-186 l-16 -20 -13 20 c-6 11 -34 74 -60 140 -27 66 -74 158 -104 205 -108 166
-320 343 -533 447 -397 192 -934 224 -1375 82 -292 -95 -583 -299 -724 -508
-55 -80 -115 -209 -138 -292 -26 -92 -25 -336 1 -439 30 -121 76 -210 130
-254 25 -22 70 -68 98 -104 151 -189 457 -378 716 -442 104 -25 326 -58 448
-66 185 -12 471 26 655 87 430 143 710 382 845 718 23 58 49 122 58 141 17 35
17 34 12 -57 -7 -107 -22 -152 -107 -304 -43 -76 -59 -114 -54 -128 10 -31
-51 -136 -115 -201 -65 -65 -163 -132 -295 -201 -52 -28 -95 -53 -95 -55 0
-15 188 84 300 159 146 97 335 288 444 447 47 69 51 73 54 47 14 -123 -187
-372 -435 -537 -457 -306 -1036 -414 -1631 -304 -680 125 -1228 600 -1301
1129 -24 170 -9 351 34 415 13 19 37 68 53 107 105 259 372 532 663 679 148
74 379 153 540 185 35 7 58 14 52 16 -16 6 -242 -41 -348 -72 -92 -27 -338
-141 -469 -219 -336 -199 -580 -509 -653 -829 -21 -93 -23 -335 -4 -432 34
-169 96 -299 241 -500 51 -71 102 -141 114 -155 11 -14 3 -9 -19 11 -22 20
-73 62 -113 94 -84 67 -138 138 -212 280 -79 152 -101 184 -125 182 -16 -2
-29 16 -66 91 -27 53 -52 122 -59 159 -18 94 -7 234 30 382 17 68 28 126 26
129 -7 7 -34 -62 -64 -167 -25 -91 -27 -107 -26 -291 1 -181 3 -202 28 -295
16 -55 34 -126 42 -157 8 -31 34 -100 58 -152 25 -53 43 -96 40 -96 -12 0
-109 99 -135 137 -42 61 -94 203 -119 324 -19 90 -21 127 -17 274 5 190 25
290 91 452 111 270 347 543 636 733 113 74 355 194 494 245 217 80 506 137
781 154 81 5 -273 9 -942 10 l-1073 1 0 -1600z m2440 764 c126 -18 251 -48
300 -72 44 -21 51 -54 19 -88 -28 -30 -80 -32 -210 -5 -154 31 -282 44 -408
39 -111 -4 -123 -6 -187 -39 -41 -20 -80 -49 -99 -72 -26 -34 -30 -47 -30
-101 0 -124 41 -150 480 -306 160 -56 318 -115 353 -131 74 -33 172 -123 202
-183 27 -57 27 -164 0 -224 -43 -94 -186 -194 -326 -228 -84 -21 -302 -23
-419 -5 -232 36 -471 122 -508 182 -16 26 16 66 61 80 36 10 52 7 218 -49 215
-73 271 -84 434 -85 147 -1 207 17 283 84 95 83 97 166 8 255 -48 48 -58 52
-313 143 -521 187 -563 206 -634 300 -138 181 -30 399 243 490 127 43 305 48
533 15z m3914 -54 c21 -20 21 -25 24 -654 l2 -634 409 -4 c388 -3 410 -4 431
-23 28 -25 23 -62 -13 -89 -28 -21 -37 -21 -501 -21 -424 0 -474 2 -497 17
-25 16 -26 19 -32 175 -8 193 -7 1049 2 1153 6 73 7 75 41 93 44 23 105 17
134 -13z m2451 20 c45 -10 65 -32 65 -72 0 -19 -8 -33 -27 -45 -23 -16 -57
-18 -250 -21 l-223 -4 0 -634 0 -634 -32 -20 c-42 -25 -94 -25 -135 0 l-33 20
0 634 0 634 -231 4 -231 4 -24 27 c-50 59 -15 104 86 110 146 8 998 6 1035 -3z
m1442 -8 c50 -28 52 -79 5 -110 -23 -15 -66 -17 -399 -20 l-373 -3 0 -214 0
-213 268 -4 c195 -3 274 -7 293 -17 34 -17 53 -56 40 -80 -24 -45 -32 -46
-320 -51 l-276 -5 -3 -287 c-1 -159 -1 -289 0 -289 2 -1 172 -5 378 -9 206 -4
383 -11 393 -15 10 -4 23 -19 28 -33 14 -36 -16 -74 -67 -85 -21 -4 -231 -7
-465 -5 -403 3 -428 4 -448 22 -21 19 -21 21 -21 670 1 599 5 724 25 744 15
15 144 20 525 18 300 -1 400 -4 417 -14z m622 -13 l31 -23 0 -314 0 -313 28
20 c15 11 205 162 422 336 217 174 405 318 417 321 59 15 133 -24 133 -71 0
-26 -16 -40 -331 -295 -85 -69 -175 -145 -201 -169 l-48 -44 47 -66 c26 -36
138 -187 248 -336 286 -385 289 -388 281 -419 -7 -28 -51 -56 -90 -56 -63 0
-58 -5 -401 445 -218 287 -233 305 -250 305 -7 0 -67 -43 -134 -96 l-121 -95
-1 -147 c-1 -81 -4 -199 -8 -262 l-6 -115 -35 -17 c-50 -26 -93 -23 -129 8
l-31 26 0 677 0 678 23 20 c12 11 29 23 37 26 28 12 88 -1 119 -24z m1606 11
c14 -11 389 -492 711 -910 l119 -155 6 415 c3 228 7 459 8 512 1 118 17 144
91 154 40 5 50 3 78 -21 l33 -27 -3 -679 c-3 -674 -3 -679 -24 -699 -25 -26
-93 -37 -123 -20 -27 14 -160 180 -551 690 l-295 383 -6 -209 c-3 -115 -7
-347 -8 -515 l-1 -306 -25 -23 c-35 -33 -125 -35 -155 -4 -20 20 -21 34 -27
700 l-6 680 29 19 c16 11 36 23 44 27 21 10 88 2 105 -12z m2255 -6 c158 -36
311 -148 375 -276 l35 -71 0 -357 0 -357 -35 -70 c-102 -203 -352 -320 -640
-298 -116 9 -182 27 -273 71 -94 46 -198 143 -235 218 l-27 55 0 381 0 382 31
59 c73 137 260 254 449 280 73 10 239 1 320 -17z m-9395 -9 c149 -41 317 -161
367 -262 23 -47 23 -53 26 -431 l3 -382 -31 -55 c-63 -109 -207 -213 -366
-262 -49 -15 -92 -18 -249 -17 -180 0 -194 2 -264 27 -163 59 -290 157 -345
266 l-27 53 3 371 3 372 34 63 c64 117 207 216 381 262 65 17 98 20 240 16
111 -3 185 -10 225 -21z"/>
<path d="M14450 2184 c-112 -20 -215 -75 -273 -146 -42 -52 -49 -137 -45 -488
5 -333 6 -340 87 -413 87 -79 190 -111 335 -105 154 7 255 55 332 155 42 56
47 104 42 488 l-3 300 -26 40 c-45 68 -113 118 -204 149 -49 17 -196 29 -245
20z"/>
<path d="M4931 2170 c-86 -23 -147 -56 -195 -106 -64 -66 -67 -80 -73 -347 -6
-285 6 -470 33 -517 26 -43 122 -114 190 -140 220 -82 488 -19 599 140 l30 43
3 356 3 356 -33 55 c-38 63 -120 124 -208 154 -85 28 -255 31 -349 6z"/>
</g>
</svg>
